<svg id="Capa_1" data-name="Capa 1" xmlns="http://www.w3.org/2000/svg" viewBox="0 0 516.81 633.12"><defs><style>.cls-1{fill:#3b3019;}</style></defs><path class="cls-1" d="M33.73,445.45a89.3,89.3,0,0,0,9.59-1,27.4,27.4,0,0,0,21.83-26.74c0-4,0-4,4-4,3,0,5.93-.09,8.89,0,1.73.07,2.23-.5,2.22-2.25-.06-15.62,0-31.23,0-46.85,0-28.14-.16-56.28.11-84.41a202.31,202.31,0,0,1,13.74-70.8A213.77,213.77,0,0,1,213,88.19,210.67,210.67,0,0,1,426.58,121.1a213,213,0,0,1,50.74,60.78,210.24,210.24,0,0,1,23.19,64,219.4,219.4,0,0,1,3.64,40.67q0,62.18,0,124.35c0,2.87,0,2.87,2.91,2.88h9.29c2.73,0,2.78,0,2.75,2.68a27.52,27.52,0,0,0,6.64,18.95,27.14,27.14,0,0,0,21.19,9.77c1,0,2,0,3,.06a2.4,2.4,0,0,1,.51.17V555.07c-20.49.59-31,11-31.51,31.73h-2.54c-10.41,0-20.82.05-31.23,0a3.62,3.62,0,0,0-3.81,2.29,204.77,204.77,0,0,1-26.67,40.5A213.29,213.29,0,0,1,391.23,681a210.25,210.25,0,0,1-60.32,21.19,210.85,210.85,0,0,1-135.47-19.94A212.14,212.14,0,0,1,113.17,607c-3.79-5.93-7-12.21-10.41-18.39a3,3,0,0,0-3.06-1.85c-10.41.06-20.82,0-31.23,0-3.82,0-3.26.26-3.31-3.25-.18-11.8-5.6-20.34-16.09-25.61a26.6,26.6,0,0,0-13.44-2.57c-1.54.08-2-.39-2-2q.06-53.18,0-106.36C33.64,446.51,33.69,446,33.73,445.45Zm258.35-31.7H473.14c3.79,0,3.22.09,3.22-3.15,0-41.11-.05-82.23,0-123.35a187.58,187.58,0,0,0-10.64-64,184.35,184.35,0,0,0-347-.54,185.26,185.26,0,0,0-10.79,63.76c.09,41.32,0,82.63,0,124,0,.59,0,1.19,0,1.78-.06,1.07.39,1.59,1.5,1.53.79,0,1.58,0,2.37,0Zm.16,7.57h-47q-85,0-170,0c-1.73,0-2.7.21-3,2.27a35,35,0,0,1-28.3,28.57c-2.06.36-2.61,1.1-2.6,3.15.07,29.92,0,59.84.06,89.76,0,2.9-.69,2.74,2.89,3.41,13.88,2.59,25.5,14.14,27.89,27.72.59,3.36.1,3.05,3.67,3.05H450q29.65,0,59.3,0c1.73,0,2.48-.35,2.82-2.25a34.93,34.93,0,0,1,28.53-28.61c1.71-.32,2.41-.86,2.41-2.75q-.1-45.36,0-90.74c0-1.69-.47-2.38-2.2-2.7a35.11,35.11,0,0,1-28.66-28.05c-.58-2.83-.58-2.83-3.47-2.83ZM133.6,587c27.84,49,88.17,93.7,165.24,91,72.52-2.55,127.34-47.15,151.76-91ZM88,413.75h4c2.81,0,2.82,0,2.82-2.76q0-62.48,0-124.94a205,205,0,0,1,2.73-33.64,194.44,194.44,0,0,1,19.62-58.56,197.76,197.76,0,0,1,43.88-56.25A197.17,197.17,0,0,1,489.35,286q-.09,61.59,0,123.17c0,4.62,0,4.62,4.55,4.6,2.61,0,2.62,0,2.62-2.57q0-63.07,0-126.13a200.35,200.35,0,0,0-10.65-65.22q-21.43-62.65-75.19-101.31a202.77,202.77,0,0,0-205-18.8,206.28,206.28,0,0,0-102.1,106.6c-9.62,23-15.27,46.89-15.48,71.8-.36,44.54-.15,89.09-.18,133.64C87.89,412.33,88,412.91,88,413.75Zm22.56,173.08c31.52,63.95,109.27,121.86,207.1,109.71,47.81-5.95,88.38-27,121.9-61.59a198.19,198.19,0,0,0,34.34-48.15c-2.49,0-4.39.07-6.29,0a2.52,2.52,0,0,0-2.62,1.6c-1.46,2.72-3,5.43-4.61,8-20.23,32.51-47.38,57.44-81.72,74.48A192.49,192.49,0,0,1,315,689.75a195.63,195.63,0,0,1-109.61-19,199.57,199.57,0,0,1-86.11-82.26c-.38-.67-1.09-1.57-1.71-1.63C115.36,586.71,113.12,586.83,110.59,586.83Z" transform="translate(-33.6 -72.7)"/><path class="cls-1" d="M204.71,310c.48-3.86.83-8.93,1.78-13.89,1.76-9.17,7.8-15.31,15.32-20.19,8.95-5.82,18.88-9.27,29.18-11.72,25.17-6,50.61-6.54,76.15-3.12,13.62,1.82,26.95,4.95,39.4,11,7.79,3.79,14.88,8.49,19.57,16.08.07.11.19.2.22.32.85,3.62,3.54,4.42,6.8,4.93A42.64,42.64,0,0,1,408.26,299c11.05,6.52,15.12,16.61,12.06,29.16-3.28,13.47-11.69,22.81-23.58,29.17-6.67,3.57-13.64,6.56-20.52,9.71a31,31,0,0,0-10.33,7.34c-15,16.4-34.1,25.47-55.71,29.53-4.75.89-9.74,2-14.45,1.47-25.87-2.81-48.9-12-66.72-31.78-13.53-15-21.14-32.71-23.45-52.73C205.19,317.63,205.05,314.4,204.71,310Zm96.12,11.86c4.43-.28,12-.6,19.54-1.27,11.38-1,22.59-3,33.35-7,5.46-2,10.68-4.54,14.83-8.79,5.83-6,5.8-13.56-.09-19.48-4.73-4.75-10.69-7.38-16.9-9.48-13.65-4.64-27.82-6.5-42.13-7-9.46-.33-19-.13-28.43.34a135.54,135.54,0,0,0-36.82,6.63c-5.9,2-11.59,4.45-16.21,8.76-7.2,6.72-6.88,15.35.65,21.67,5.53,4.63,12.07,7.22,18.86,9.21C263.87,320.24,280.71,321.52,300.83,321.82Zm-79,1.29c2.3,17.05,8.69,31.78,19.94,44.28a74.42,74.42,0,0,0,34.41,21.69c-.21-.64-.78-.87-1.2-1.25-4-3.58-8.07-7-11.78-10.82-14.45-14.87-26.32-31.22-29-52.6-.06-.47-.7-1.23-1.08-1.24C229.41,323.07,225.8,323.11,221.78,323.11ZM383.26,348c1.27-.63,2.12-1,2.88-1.44,6.37-4,10.32-10.05,13.41-16.7a29.15,29.15,0,0,0,3.14-13.34c-.22-5.92-3.49-8.47-9.23-7.48-2,.34-2.77,1.2-3.09,3.28-1.37,8.77-2.92,17.52-4.56,26.24C385.25,341.58,384.22,344.5,383.26,348Z" transform="translate(-33.6 -72.7)"/><path class="cls-1" d="M145.76,244.32c-.73,2.88-1.42,5.48-2.07,8.09a157,157,0,0,0-4.26,38.39q.07,53.28,0,106.56v2.89h-6.16c0-.64-.11-1.28-.11-1.91,0-38.16-.1-76.31.09-114.46a147,147,0,0,1,6-39.54c.38-1.33.86-1.94,2.33-1.31C142.88,243.56,144.24,243.86,145.76,244.32Z" transform="translate(-33.6 -72.7)"/><path class="cls-1" d="M438.53,244.3l6-1.81c1.1,4.48,2.25,8.72,3.17,13a148.05,148.05,0,0,1,3.34,31q0,55.74,0,111.47v2.3H444.8v-2.58q0-53.87,0-107.72A156.28,156.28,0,0,0,439,246.23C438.8,245.67,438.71,245.09,438.53,244.3Z" transform="translate(-33.6 -72.7)"/><path class="cls-1" d="M307.51,166.79a14.14,14.14,0,0,1,5.49,6.52,47.8,47.8,0,0,1,3,30.13,32.28,32.28,0,0,1-7,13.56c-5.29,6.42-6.28,13.59-4.44,21.38.8,3.39,1.89,6.71,2.73,10.09.64,2.57,1.11,5.19,1.65,7.78l-.91.44c-2.31-3.14-4.88-6.12-6.88-9.45-5-8.26-7.29-17.17-5.37-26.84,1.05-5.26,4.09-9.53,7.22-13.69,4.81-6.37,8.23-13.33,7.89-21.44-.2-4.94-1.4-9.85-2.22-14.77A33.43,33.43,0,0,0,307.51,166.79Z" transform="translate(-33.6 -72.7)"/><path class="cls-1" d="M292.72,160.66a14.47,14.47,0,0,1,5.22,6.7c4.34,10.68,5.44,21.61,1.29,32.53-1.45,3.8-3.94,7.3-6.38,10.62A20.94,20.94,0,0,0,289,227.69c.85,4.32,2.16,8.54,3.19,12.82.55,2.28.95,4.59,1.42,6.89l-.46.22a3.14,3.14,0,0,1-.7-.46c-7.84-8.35-12.4-18-12.24-29.7.08-6.55,3.08-11.89,6.79-16.94,3.41-4.64,6.5-9.41,7.86-15.14,1.73-7.24.56-14.25-1.4-21.23-.28-1-.59-2-.89-3A2.85,2.85,0,0,1,292.72,160.66Z" transform="translate(-33.6 -72.7)"/><path class="cls-1" d="M179.46,200.77a13.91,13.91,0,0,1-13.86-14c.06-7.69,6.57-14.21,14.1-14.13a14.12,14.12,0,0,1,13.91,14.06A14.34,14.34,0,0,1,179.46,200.77Zm9.84-13.58c.06-5.21-4.83-10-10.21-10a9.32,9.32,0,0,0-9.2,9c-.12,5.24,4.65,10,10.09,10.11A9.33,9.33,0,0,0,189.3,187.19Z" transform="translate(-33.6 -72.7)"/><path class="cls-1" d="M420.64,189.45a14,14,0,0,1-14.08,13.8,14.36,14.36,0,0,1-14.05-14.17,14.09,14.09,0,0,1,14-13.93A14.43,14.43,0,0,1,420.64,189.45Zm-13.26-9.77a10.36,10.36,0,0,0-10.48,9.7,9.28,9.28,0,0,0,9,9.39A10.37,10.37,0,0,0,416.23,189,9.19,9.19,0,0,0,407.38,179.68Z" transform="translate(-33.6 -72.7)"/><path class="cls-1" d="M293.76,119.33l19.62,1.29c0,.79-.05,1.48,0,2.17.12,1.53-.56,1.86-2,1.75-4.38-.36-8.77-.57-13.42-.85-.16,2.43-.31,4.68-.46,7.12l13.52.95c-.09,1.3-.17,2.56-.26,4-3.93-.26-7.66-.42-11.37-.78-1.71-.16-2.41.25-2.34,2.06a51.79,51.79,0,0,1-.29,5.27l15.4,1.06c-.07,1.41-.12,2.56-.19,4l-20-1.24C292.59,137.16,293.17,128.39,293.76,119.33Z" transform="translate(-33.6 -72.7)"/><path class="cls-1" d="M280.45,142.71c.24,1.37.45,2.51.71,3.95L261.43,150c-1.48-8.92-2.93-17.64-4.41-26.52l19.49-3.24c.23,1.37.44,2.56.68,4l-15.09,2.6c.39,2.36.75,4.54,1.16,7l13.35-2.14c.25,1.24.49,2.48.78,3.91l-13.46,2.32c.39,2.24.67,4.37,1.2,6.43.08.34,1.25.65,1.86.56C271.41,144.24,275.81,143.48,280.45,142.71Z" transform="translate(-33.6 -72.7)"/><path class="cls-1" d="M382,166.73c-3.64-2.66-7-5.13-10.66-7.76l-6.79,9.16-3.6-2.62,15.84-21.7,3.59,2.65-6.57,9.09,10.67,7.81,6.67-9.08,3.6,2.64-15.84,21.69L375.35,176Z" transform="translate(-33.6 -72.7)"/><path class="cls-1" d="M419.5,218.9l-7.88,3.42-1.91-4,24.87-10.92c1.71,4.55,3.65,8.88,4.93,13.39,1,3.65-.88,7.07-4.07,8.81-3.6,2-7.53,1.76-10.25-1a27.18,27.18,0,0,1-3.77-5.46A40.67,40.67,0,0,1,419.5,218.9Zm3.57-1.56a75.49,75.49,0,0,0,3.89,7.25c1.3,1.92,3.57,2.23,5.66,1.29s3.28-2.67,2.76-4.71c-.67-2.69-1.81-5.25-2.8-8Z" transform="translate(-33.6 -72.7)"/><path class="cls-1" d="M359.55,137.89l-3.2,2.06A16.36,16.36,0,0,0,354,137.3a21.73,21.73,0,0,0-4.83-2.88,3.13,3.13,0,0,0-4.08,1.49c-1,1.71-.21,3.09,1,4.21s2.88,2.29,4.3,3.47a26.47,26.47,0,0,1,2.47,2.26,6.47,6.47,0,0,1,1.39,7.47,7.23,7.23,0,0,1-6.69,4.74c-5.28.22-11.3-3.75-13.67-9.14l3.32-1.83c1.23,1.5,2.19,3.18,3.61,4.24a18.09,18.09,0,0,0,5.42,2.6,3.22,3.22,0,0,0,2.86-5.53c-1.37-1.24-2.83-2.36-4.25-3.53-.76-.63-1.55-1.22-2.27-1.9-2.59-2.41-3.23-4.89-2.09-7.8a7.43,7.43,0,0,1,7.09-5C352.08,130,357.63,133.59,359.55,137.89Z" transform="translate(-33.6 -72.7)"/><path class="cls-1" d="M155.43,204.57c.56,1.23,1.08,2.35,1.71,3.7-3.41,1.93-6.58,4.27-6.62,8.56a11.64,11.64,0,0,0,1.66,5.91c2.47,4,8.19,5.5,12.41,3.65,4.41-1.94,6-6.36,4.56-13.06l3.48-1.3c3.57,6.05.37,15.15-6.31,18.45A14.4,14.4,0,0,1,147.05,223C144.22,216,148.23,207,155.43,204.57Z" transform="translate(-33.6 -72.7)"/><path class="cls-1" d="M243.82,139.65l1.51,3.7-12.58,5.22c1.37,3.42,2.69,6.69,4.07,10.15l-4.06,1.76-10.22-24.89,18.4-7.54c.52,1.29,1,2.43,1.49,3.75l-14.19,5.89,2.93,7.07Z" transform="translate(-33.6 -72.7)"/><path class="cls-1" d="M209.94,147l-12.41,9.12,4.53,6.22,11-8c.81,1.09,1.54,2.06,2.42,3.22l-11,8.08,6.41,8.87-3.53,2.71c-5.28-7.22-10.51-14.36-15.9-21.7l16.08-11.74Z" transform="translate(-33.6 -72.7)"/><path class="cls-1" d="M243.6,500.3v24.9c0,.59,0,1.19,0,1.78-.17,6.79-2.53,9.15-9.28,9.19s-13.7,0-20.55,0a22,22,0,0,1-2.56-.14c-3.89-.46-6-2.56-6.54-6.47a27.67,27.67,0,0,1-.24-3.75q0-25.59,0-51.18a27.64,27.64,0,0,1,.25-3.74c.52-3.84,2.57-5.87,6.42-6.37a26.21,26.21,0,0,1,3.54-.24c7.31,0,14.62-.07,21.92.26,4.5.2,6.48,2.56,6.91,7.11.1,1.11.13,2.24.13,3.36Q243.62,487.66,243.6,500.3Zm-12.76,0c0-7.11,0-14.22,0-21.33,0-3.61-1.48-5.05-5-5.06-1.58,0-3.16,0-4.74,0a3.5,3.5,0,0,0-3.53,2.88,12,12,0,0,0-.27,2.74q0,20.75,0,41.48a14.36,14.36,0,0,0,.08,2,3.92,3.92,0,0,0,4.12,3.7c1.32.06,2.63,0,3.95,0,4.05,0,5.41-1.38,5.42-5.49C230.85,514.23,230.84,507.25,230.84,500.27Z" transform="translate(-33.6 -72.7)"/><path class="cls-1" d="M179.6,496.27v-2.58c0-5,0-10,0-15-.05-3.33-1.59-4.77-4.91-4.79-1.45,0-2.9,0-4.34,0A4,4,0,0,0,166,477.8a14.89,14.89,0,0,0-.06,1.77q0,20.65,0,41.31a8.55,8.55,0,0,0,.29,2.73,5.5,5.5,0,0,0,1.45,2.26c1.53,1.32,8.93,1.36,10.2-.12a7.14,7.14,0,0,0,1.64-4c.22-3.8,0-7.63.11-11.45,0-.71.24-1.77.73-2.05,3.68-2.15,7.45-4.14,11.46-6.33.06.89.13,1.51.13,2.12q0,11.07,0,22.14c0,.66,0,1.32-.05,2-.34,5.38-2.67,7.85-8.06,8-7.5.15-15,.15-22.52,0-5.45-.11-7.88-2.65-8.06-8.13-.12-3.82,0-7.64,0-11.47V473.82c0-7,2.56-9.56,9.57-9.54,7.37,0,14.76-.06,22.12.26,4.31.18,6.51,2.29,6.79,6.54.37,5.84.2,11.72.22,17.58a1.53,1.53,0,0,1-.61,1.12C187.56,491.9,183.77,494,179.6,496.27Z" transform="translate(-33.6 -72.7)"/><path class="cls-1" d="M408.57,505.15v21.2c8.16,1.64,15.46-.24,22.17-5.26a7.7,7.7,0,0,1,.35,1.37c0,4.09,0,8.17,0,12.26,0,1-.21,1.58-1.4,1.58q-18.09,0-36.17,0a2.82,2.82,0,0,1-.68-.23,6.22,6.22,0,0,1,.59-1.41c2.07-2.74,2.24-5.86,2.22-9.16q-.14-25.79,0-51.59c0-2.66-.29-5.08-1.89-7.27a17,17,0,0,1-1.14-2.18c.86-.05,1.49-.12,2.11-.12,11.4,0,22.8,0,34.2-.05,1.77,0,2.24.51,2.19,2.23-.12,4.14,0,8.28,0,12.86a38.32,38.32,0,0,1-5.3-2.72c-5.3-3.9-11.3-2.49-17.24-2.72v21.46c5.57-.17,11.18,1.19,16.37-2.67v15.1C419.84,504.12,414.26,505.25,408.57,505.15Z" transform="translate(-33.6 -72.7)"/><path class="cls-1" d="M382.61,464.44v14.79a28.4,28.4,0,0,1-4.45-2.23c-5.47-4-11.7-3.14-18-3V495.4a71.73,71.73,0,0,0,8.43-.08,68.11,68.11,0,0,0,8-1.88v14a3.66,3.66,0,0,1-1.13-.3c-4.43-2.87-9.41-1.85-14.22-1.92-.4,0-1.16.83-1.16,1.28q-.12,9.48,0,19a1.78,1.78,0,0,0,1.22,1.22c3.36.1,6.72.09,10.08,0a4.71,4.71,0,0,0,1.84-.61c3.05-1.52,6.08-3.08,9.36-4.74v14.83H344.38a7.27,7.27,0,0,1,.58-1.29c2.08-2.86,2.42-6.06,2.4-9.52q-.17-25.68,0-51.38c0-2.66-.3-5.08-1.86-7.28a19,19,0,0,1-1.21-2.26Z" transform="translate(-33.6 -72.7)"/><path class="cls-1" d="M94.38,536.17a79.34,79.34,0,0,1-6.23-5c-17.16-16.65-16.93-48,.48-64.35a20.55,20.55,0,0,1,5.9-3.84c5.35-2.29,10.13.2,11.57,5.84a29.23,29.23,0,0,1-1,17.12c-2.38,6.83-5.21,13.5-7.85,20.23-2.38,6.1-4.41,12.32-4.15,19a72.73,72.73,0,0,0,1.31,8.73c.1.62.31,1.23.46,1.84Z" transform="translate(-33.6 -72.7)"/><path class="cls-1" d="M471.62,536.2a64.14,64.14,0,0,1-6.24-5c-10-10.14-13.68-22.56-12.53-36.52a43.89,43.89,0,0,1,12.67-27.62,16.28,16.28,0,0,1,7.7-4.62,7.71,7.71,0,0,1,9.47,4.75,22.71,22.71,0,0,1,.39,15.52c-2.05,6.65-4.77,13.09-7.08,19.66A161.13,161.13,0,0,0,471,518a27.15,27.15,0,0,0,.79,16.35,8.92,8.92,0,0,1,.31,1.47Z" transform="translate(-33.6 -72.7)"/><path class="cls-1" d="M489.44,464.39a28.67,28.67,0,0,1,11,10c10.08,15,11,30.92,3.72,47.29A34.54,34.54,0,0,1,492.74,536c-2.52,1.8-5.32,3-8.52,2.08-3.82-1.06-5.94-3.71-6.69-7.52a25.3,25.3,0,0,1,1.07-12.87c2.33-7.05,5-14,7.59-21,2.26-6,4.55-12,4.84-18.44.17-3.76-.6-7.56-1-11.33A26.47,26.47,0,0,0,489.44,464.39Z" transform="translate(-33.6 -72.7)"/><path class="cls-1" d="M112.36,464.52a26,26,0,0,1,9.31,7.66c14.5,17.38,13,45.65-3.14,61.38a20.26,20.26,0,0,1-4.74,3.5c-6.32,3.23-12.37.05-13.52-6.95a26.61,26.61,0,0,1,1.26-12.87c2.48-7.42,5.3-14.73,8.06-22.05,2.07-5.51,4-11.09,4.28-17,.17-3.68-.62-7.42-1-11.13C112.78,466.33,112.57,465.58,112.36,464.52Z" transform="translate(-33.6 -72.7)"/><path class="cls-1" d="M299.49,464.42c.94-.06,1.58-.12,2.21-.12,10.87,0,21.74,0,32.61-.05,1.86,0,2.33.56,2.28,2.34-.12,4.12,0,8.25,0,12.74-2.93-1.45-5.55-2.64-8.05-4a10.7,10.7,0,0,0-6-1.44c-2.29.12-4.59,0-7,0v21.95c5.08.1,10.16.92,14.91-2.65V507.9a3.48,3.48,0,0,1-1.09-.28c-3.92-2.54-8.3-2.06-12.63-2.05-1.05,0-1.36.45-1.36,1.43,0,7.64,0,15.28.05,22.92a5.46,5.46,0,0,0,.8,2.18c.65,1.27,1.38,2.49,2.22,4H299.66a5,5,0,0,1,.42-1.07c2.41-3.06,2.49-6.59,2.47-10.28q-.14-25.61,0-51.19a11.73,11.73,0,0,0-1.95-7.06C300.22,465.93,300,465.27,299.49,464.42Z" transform="translate(-33.6 -72.7)"/><path class="cls-1" d="M254.77,464.39h36.81v14.84c-2.76-1.38-5.38-2.57-7.89-4a10.78,10.78,0,0,0-6-1.4c-2.28.12-4.57,0-7,0v21.95c5.06,0,10.19,1,15-2.72V508a4.92,4.92,0,0,1-1-.33c-3.91-2.52-8.3-2.09-12.63-2.09-1.16,0-1.45.49-1.45,1.54,0,7.52,0,15,0,22.54a4.81,4.81,0,0,0,.63,2c.7,1.4,1.5,2.75,2.41,4.38H254.91a9.21,9.21,0,0,1,.71-1.48c1.89-2.57,2.21-5.45,2.19-8.57q-.15-26.08,0-52.18a12,12,0,0,0-1.9-7.26A23.82,23.82,0,0,1,254.77,464.39Z" transform="translate(-33.6 -72.7)"/><path class="cls-1" d="M352.08,631.92l1.73-2.4c2.38,1.49,4.79,2.71,7.39,1a5.89,5.89,0,0,0,2.49-5.07c-2,.41-3.85,1.11-5.72,1.11a6.15,6.15,0,0,1-6.45-5.66,7,7,0,0,1,5-7.55c5.42-1.61,10.07,1.39,10.65,7a23.92,23.92,0,0,1-.15,6.27C365.8,634.11,358.13,636.86,352.08,631.92Zm7.06-16a3.93,3.93,0,0,0-4.23,4.13c.07,2.22,1.9,3.79,4.41,3.78s4.41-1.72,4.36-4S361.76,615.9,359.14,615.92Z" transform="translate(-33.6 -72.7)"/><path class="cls-1" d="M243.61,631v2.93H228.36V613.28H241c2.7,0,2.71,0,2.21,3.1-3,0-6.1.14-9.16,0-2.09-.12-2.71.64-2.47,2.58a23.93,23.93,0,0,1,0,3H242c.05,1.1.09,2,.16,3.22h-7.95c-2.59,0-2.6,0-2.59,2.58,0,3.85-.26,3.27,3.24,3.3C237.72,631,240.54,631,243.61,631Z" transform="translate(-33.6 -72.7)"/><path class="cls-1" d="M336.14,623.59c-.15,5.32-2.95,9.57-7.11,10.57-5,1.19-9.46-1.84-10.72-7.39a12.84,12.84,0,0,1,.83-8.49,8.52,8.52,0,0,1,16.09.89A40.73,40.73,0,0,1,336.14,623.59Zm-15.12.07c.8,2,1.23,4.07,2.31,5.69,1.8,2.7,5.33,2.61,7.38.09,2.35-2.87,2.28-8.83-.13-11.62-2.1-2.42-5.46-2.5-7.25.16C322.25,619.58,321.82,621.63,321,623.66Z" transform="translate(-33.6 -72.7)"/><path class="cls-1" d="M262.18,615.61l-1.57,2.25c-1.75-.62-3.31-1.28-4.93-1.69a3.56,3.56,0,0,0-2.48.21c-.8.48-1.77,1.41-1.82,2.21a3.12,3.12,0,0,0,1.53,2.37,34.21,34.21,0,0,0,5,1.67c3.7,1.15,5.23,3,5,6.11s-2.42,5.14-6.14,5.53a12.28,12.28,0,0,1-9.64-3.12l1.86-2.4a8.26,8.26,0,0,0,1.94,1.19,32.09,32.09,0,0,0,5.86,1.2,2.56,2.56,0,0,0,2.73-2.36c.21-1.54-.85-2.3-2.08-2.73-1.68-.58-3.41-1-5.1-1.53-3.44-1.11-4.83-3.06-4.5-6.22.29-2.77,2.46-4.8,5.63-5.16A11,11,0,0,1,262.18,615.61Z" transform="translate(-33.6 -72.7)"/><path class="cls-1" d="M302.34,619.34l-2.41-1.9A8.27,8.27,0,0,1,311,613.87a6.32,6.32,0,0,1,1.58,9.57,70.3,70.3,0,0,1-5.92,5.5,6.47,6.47,0,0,0-1.74,2.08h9.21v2.92H299.68a3,3,0,0,1,1-3.78c2.19-1.69,4.25-3.54,6.33-5.36a17.42,17.42,0,0,0,2.47-2.54c1.36-1.83,1.29-4,0-5.23a4.3,4.3,0,0,0-5.45.22A14.93,14.93,0,0,0,302.34,619.34Z" transform="translate(-33.6 -72.7)"/><path class="cls-1" d="M275.72,616.5V634h-3.46v-2.84c0-4.28-.05-8.56,0-12.84,0-1.4-.45-1.91-1.81-1.79-.79.07-1.58,0-2.37,0-2.74,0-2.81-.09-2.2-3.21h9.57c1.71,0,3.42.05,5.13,0,1.18,0,1.82.2,1.81,1.6s-.53,1.71-1.76,1.65C279.09,616.45,277.52,616.5,275.72,616.5Z" transform="translate(-33.6 -72.7)"/><path class="cls-1" d="M339.38,617.53c-.23-.83-.43-1.57-.73-2.7l7.78-2v21.13h-3.26V616.76Z" transform="translate(-33.6 -72.7)"/><path class="cls-1" d="M286.46,630.33v3.61H283v-3.61Z" transform="translate(-33.6 -72.7)"/></svg>